<?xml version="1.0" encoding="UTF-8" standalone="no"?>
<!-- Generator: Adobe Illustrator 19.1.0, SVG Export Plug-In . SVG Version: 6.00 Build 0)  -->

<svg
   version="1.1"
   id="Layer_1"
   x="0px"
   y="0px"
   viewBox="0 0 24 24"
   xml:space="preserve"
   sodipodi:docname="orcid.svg"
   inkscape:version="1.1.1 (eb90963e84, 2021-10-02)"
   width="24"
   height="24"
   xmlns:inkscape="http://www.inkscape.org/namespaces/inkscape"
   xmlns:sodipodi="http://sodipodi.sourceforge.net/DTD/sodipodi-0.dtd"
   xmlns="http://www.w3.org/2000/svg"
   xmlns:svg="http://www.w3.org/2000/svg"><defs
   id="defs17">
	
	
	
</defs><sodipodi:namedview
   id="namedview15"
   pagecolor="#ffffff"
   bordercolor="#666666"
   borderopacity="1.0"
   inkscape:pageshadow="2"
   inkscape:pageopacity="0.0"
   inkscape:pagecheckerboard="0"
   showgrid="false"
   inkscape:zoom="15.801943"
   inkscape:cx="-1.0441754"
   inkscape:cy="23.636333"
   inkscape:window-width="1860"
   inkscape:window-height="1016"
   inkscape:window-x="60"
   inkscape:window-y="27"
   inkscape:window-maximized="1"
   inkscape:current-layer="g846"
   fit-margin-top="0"
   fit-margin-left="0"
   fit-margin-right="0"
   fit-margin-bottom="0" />
<style
   type="text/css"
   id="style2">
	.st0{fill:#A6CE39;}
	.st1{fill:#FFFFFF;}
</style>

<g
   id="g846"
   transform="matrix(0.9,0,0,0.9,1.1999999,1.1999999)"
   style="stroke-width:2.22222222;stroke-miterlimit:4;stroke-dasharray:none"><path
     class="st0"
     d="M 23.010752,12 C 23.010752,18.081721 18.081721,23.010752 12,23.010752 5.9182793,23.010752 0.98924694,18.081721 0.98924694,12 0.98924694,5.9182793 5.9182793,0.98924694 12,0.98924694 18.081721,0.98924694 23.010752,5.9182793 23.010752,12 Z"
     id="path4"
     style="fill:#000000;fill-opacity:0;stroke:#000000;stroke-width:2.22222222;stroke-miterlimit:4;stroke-dasharray:none;stroke-opacity:1" /><path
     class="st1"
     d="M 8.3739129,17.060869 H 7.0347825 V 7.7478259 h 1.3391304 v 4.2086951 z"
     id="path6"
     style="fill:#000000;fill-opacity:0.994503;stroke:none;stroke-width:2.22222222;stroke-miterlimit:4;stroke-dasharray:none;stroke-opacity:1" /><path
     class="st1"
     d="m 10.33913,7.7478259 h 3.617391 c 3.443479,0 4.956522,2.4608691 4.956522,4.6608691 0,2.391305 -1.869565,4.66087 -4.93913,4.66087 H 10.33913 Z m 1.339131,8.1130431 h 2.130434 c 3.034783,0 3.730435,-2.304348 3.730435,-3.452174 0,-1.869565 -1.191304,-3.4521734 -3.8,-3.4521734 h -2.060869 z"
     id="path8"
     style="fill:#000000;fill-opacity:0.994503;stroke:none;stroke-width:2.22223;stroke-miterlimit:4;stroke-dasharray:none;stroke-opacity:1" /><path
     class="st1"
     d="m 8.5826085,5.8086955 c 0,0.4782609 -0.3913043,0.8782609 -0.8782608,0.8782609 -0.4869565,0 -0.8782609,-0.4 -0.8782609,-0.8782609 0,-0.4869565 0.3913044,-0.8782608 0.8782609,-0.8782608 0.4869565,0 0.8782608,0.4 0.8782608,0.8782608 z"
     id="path10"
     style="fill:#000000;fill-opacity:0.994503;stroke:none;stroke-width:2.22223;stroke-miterlimit:4;stroke-dasharray:none;stroke-opacity:1" /></g>
</svg>
